<svg xmlns="http://www.w3.org/2000/svg" xmlns:xlink="http://www.w3.org/1999/xlink" width="793" zoomAndPan="magnify" viewBox="0 0 594.95996 842.24997" height="1122" preserveAspectRatio="xMidYMid meet" version="1.0"><defs><clipPath id="80491d79d9"><path d="M 397 429 L 397.019531 429 L 397.019531 437 L 397 437 Z M 397 429 " clip-rule="nonzero"/></clipPath><clipPath id="941242b756"><path d="M 381.359375 420.21875 L 406.816406 420.21875 L 406.816406 445.671875 L 381.359375 445.671875 Z M 381.359375 420.21875 " clip-rule="nonzero"/></clipPath><clipPath id="b94d569e69"><path d="M 188.246094 423.8125 L 206.214844 423.8125 L 206.214844 441.78125 L 188.246094 441.78125 Z M 188.246094 423.8125 " clip-rule="nonzero"/></clipPath></defs><g clip-path="url(#80491d79d9)"><path fill="#746aea" d="M 397.75 433.777344 C 397.644531 433.335938 397.628906 432.894531 397.703125 432.445312 C 397.777344 431.996094 397.933594 431.582031 398.171875 431.195312 C 398.410156 430.808594 398.71875 430.484375 399.085938 430.21875 C 399.457031 429.953125 399.863281 429.769531 400.308594 429.664062 C 400.753906 429.558594 401.199219 429.542969 401.648438 429.617188 C 402.101562 429.691406 402.519531 429.84375 402.90625 430.085938 C 403.296875 430.324219 403.621094 430.625 403.890625 430.992188 C 404.15625 431.363281 404.34375 431.765625 404.445312 432.207031 C 404.550781 432.648438 404.566406 433.09375 404.496094 433.542969 C 404.421875 433.988281 404.265625 434.40625 404.023438 434.792969 C 403.785156 435.175781 403.480469 435.503906 403.109375 435.769531 C 402.742188 436.03125 402.332031 436.21875 401.890625 436.320312 C 401.445312 436.425781 400.996094 436.441406 400.546875 436.371094 C 400.097656 436.296875 399.679688 436.140625 399.289062 435.902344 C 398.902344 435.664062 398.574219 435.359375 398.308594 434.992188 C 398.039062 434.625 397.855469 434.21875 397.75 433.777344 Z M 397.75 433.777344 " fill-opacity="1" fill-rule="nonzero"/></g><path fill="#746aea" d="M 389.597656 435.410156 C 389.273438 435.089844 389.027344 434.722656 388.851562 434.300781 C 388.675781 433.882812 388.589844 433.445312 388.589844 432.992188 C 388.589844 432.539062 388.675781 432.101562 388.851562 431.683594 C 389.027344 431.265625 389.273438 430.894531 389.597656 430.574219 C 389.917969 430.253906 390.292969 430.007812 390.710938 429.832031 C 391.132812 429.660156 391.574219 429.574219 392.03125 429.574219 C 392.484375 429.574219 392.925781 429.660156 393.347656 429.832031 C 393.769531 430.007812 394.140625 430.253906 394.460938 430.574219 C 394.785156 430.894531 395.035156 431.265625 395.207031 431.683594 C 395.382812 432.101562 395.46875 432.539062 395.46875 432.992188 C 395.46875 433.445312 395.382812 433.882812 395.207031 434.300781 C 395.035156 434.722656 394.785156 435.089844 394.460938 435.410156 C 394.140625 435.730469 393.769531 435.980469 393.347656 436.152344 C 392.925781 436.328125 392.484375 436.414062 392.03125 436.414062 C 391.574219 436.414062 391.132812 436.328125 390.710938 436.152344 C 390.292969 435.980469 389.917969 435.730469 389.597656 435.410156 Z M 389.597656 435.410156 " fill-opacity="1" fill-rule="nonzero"/><path fill="#746aea" d="M 379.609375 433.78125 C 379.503906 433.339844 379.488281 432.894531 379.5625 432.445312 C 379.636719 432 379.792969 431.582031 380.03125 431.195312 C 380.273438 430.808594 380.578125 430.484375 380.945312 430.21875 C 381.316406 429.953125 381.722656 429.769531 382.167969 429.664062 C 382.613281 429.5625 383.058594 429.546875 383.507812 429.617188 C 383.960938 429.691406 384.378906 429.847656 384.765625 430.085938 C 385.15625 430.324219 385.484375 430.625 385.75 430.992188 C 386.015625 431.363281 386.203125 431.765625 386.308594 432.207031 C 386.410156 432.648438 386.425781 433.09375 386.355469 433.542969 C 386.28125 433.988281 386.125 434.40625 385.886719 434.792969 C 385.644531 435.175781 385.339844 435.503906 384.96875 435.769531 C 384.601562 436.035156 384.191406 436.21875 383.75 436.324219 C 383.304688 436.425781 382.859375 436.441406 382.40625 436.371094 C 381.957031 436.296875 381.539062 436.140625 381.148438 435.902344 C 380.761719 435.664062 380.433594 435.363281 380.167969 434.992188 C 379.902344 434.625 379.714844 434.222656 379.609375 433.78125 Z M 379.609375 433.78125 " fill-opacity="1" fill-rule="nonzero"/><path fill="#746aea" d="M 371.457031 435.410156 C 371.132812 435.089844 370.886719 434.722656 370.710938 434.300781 C 370.535156 433.882812 370.449219 433.445312 370.449219 432.992188 C 370.449219 432.539062 370.535156 432.101562 370.710938 431.683594 C 370.886719 431.265625 371.132812 430.894531 371.457031 430.574219 C 371.777344 430.253906 372.152344 430.007812 372.574219 429.832031 C 372.992188 429.660156 373.433594 429.574219 373.890625 429.574219 C 374.34375 429.574219 374.785156 429.660156 375.207031 429.832031 C 375.628906 430.007812 376 430.253906 376.320312 430.574219 C 376.644531 430.894531 376.894531 431.265625 377.066406 431.683594 C 377.242188 432.101562 377.328125 432.539062 377.328125 432.992188 C 377.328125 433.445312 377.242188 433.882812 377.066406 434.300781 C 376.894531 434.722656 376.644531 435.089844 376.320312 435.410156 C 376 435.730469 375.628906 435.980469 375.207031 436.152344 C 374.785156 436.328125 374.34375 436.414062 373.890625 436.414062 C 373.433594 436.414062 372.992188 436.328125 372.574219 436.152344 C 372.152344 435.980469 371.777344 435.730469 371.457031 435.410156 Z M 371.457031 435.410156 " fill-opacity="1" fill-rule="nonzero"/><path fill="#746aea" d="M 361.46875 433.78125 C 361.363281 433.339844 361.347656 432.894531 361.421875 432.445312 C 361.496094 432 361.652344 431.582031 361.890625 431.195312 C 362.132812 430.808594 362.4375 430.484375 362.804688 430.21875 C 363.175781 429.953125 363.582031 429.769531 364.027344 429.664062 C 364.472656 429.5625 364.917969 429.546875 365.371094 429.617188 C 365.820312 429.691406 366.238281 429.847656 366.628906 430.085938 C 367.015625 430.324219 367.34375 430.625 367.609375 430.992188 C 367.875 431.363281 368.0625 431.765625 368.167969 432.207031 C 368.273438 432.648438 368.289062 433.09375 368.214844 433.542969 C 368.140625 433.988281 367.984375 434.40625 367.746094 434.792969 C 367.503906 435.175781 367.199219 435.503906 366.828125 435.769531 C 366.460938 436.035156 366.054688 436.21875 365.609375 436.324219 C 365.164062 436.425781 364.71875 436.441406 364.265625 436.371094 C 363.816406 436.296875 363.398438 436.140625 363.007812 435.902344 C 362.621094 435.664062 362.292969 435.363281 362.027344 434.992188 C 361.761719 434.625 361.574219 434.222656 361.46875 433.78125 Z M 361.46875 433.78125 " fill-opacity="1" fill-rule="nonzero"/><path fill="#746aea" d="M 353.3125 435.410156 C 352.992188 435.089844 352.742188 434.722656 352.570312 434.300781 C 352.394531 433.882812 352.308594 433.445312 352.308594 432.992188 C 352.308594 432.539062 352.394531 432.105469 352.570312 431.683594 C 352.742188 431.265625 352.992188 430.894531 353.3125 430.574219 C 353.636719 430.253906 354.007812 430.007812 354.429688 429.832031 C 354.851562 429.660156 355.292969 429.574219 355.746094 429.574219 C 356.203125 429.574219 356.640625 429.660156 357.0625 429.832031 C 357.484375 430.007812 357.859375 430.253906 358.179688 430.574219 C 358.503906 430.894531 358.75 431.265625 358.925781 431.683594 C 359.101562 432.105469 359.1875 432.539062 359.1875 432.992188 C 359.1875 433.445312 359.101562 433.882812 358.925781 434.300781 C 358.75 434.722656 358.503906 435.089844 358.179688 435.410156 C 357.859375 435.734375 357.484375 435.980469 357.0625 436.152344 C 356.640625 436.328125 356.203125 436.414062 355.746094 436.414062 C 355.292969 436.414062 354.851562 436.328125 354.429688 436.152344 C 354.007812 435.980469 353.636719 435.734375 353.3125 435.410156 Z M 353.3125 435.410156 " fill-opacity="1" fill-rule="nonzero"/><path fill="#746aea" d="M 343.328125 433.78125 C 343.222656 433.339844 343.207031 432.894531 343.28125 432.445312 C 343.355469 431.996094 343.511719 431.582031 343.75 431.195312 C 343.992188 430.808594 344.296875 430.484375 344.664062 430.21875 C 345.035156 429.953125 345.441406 429.769531 345.886719 429.664062 C 346.332031 429.5625 346.777344 429.542969 347.226562 429.617188 C 347.679688 429.691406 348.097656 429.847656 348.484375 430.085938 C 348.875 430.324219 349.203125 430.625 349.46875 430.992188 C 349.734375 431.363281 349.921875 431.765625 350.027344 432.207031 C 350.128906 432.648438 350.148438 433.09375 350.074219 433.542969 C 350 433.988281 349.84375 434.40625 349.605469 434.792969 C 349.363281 435.175781 349.058594 435.503906 348.6875 435.769531 C 348.320312 436.035156 347.910156 436.21875 347.46875 436.320312 C 347.023438 436.425781 346.578125 436.441406 346.125 436.371094 C 345.675781 436.296875 345.257812 436.140625 344.867188 435.902344 C 344.480469 435.664062 344.152344 435.359375 343.886719 434.992188 C 343.621094 434.625 343.433594 434.222656 343.328125 433.78125 Z M 343.328125 433.78125 " fill-opacity="1" fill-rule="nonzero"/><path fill="#746aea" d="M 334.167969 432.992188 C 334.167969 432.539062 334.253906 432.101562 334.429688 431.683594 C 334.601562 431.265625 334.851562 430.894531 335.175781 430.574219 C 335.496094 430.253906 335.867188 430.007812 336.289062 429.832031 C 336.710938 429.660156 337.152344 429.574219 337.605469 429.574219 C 338.0625 429.574219 338.503906 429.660156 338.921875 429.832031 C 339.34375 430.007812 339.71875 430.253906 340.039062 430.574219 C 340.363281 430.894531 340.609375 431.265625 340.785156 431.683594 C 340.960938 432.101562 341.046875 432.539062 341.046875 432.992188 C 341.046875 433.445312 340.960938 433.882812 340.785156 434.300781 C 340.609375 434.722656 340.363281 435.089844 340.039062 435.410156 C 339.71875 435.730469 339.34375 435.980469 338.921875 436.152344 C 338.503906 436.328125 338.0625 436.414062 337.605469 436.414062 C 337.152344 436.414062 336.710938 436.328125 336.289062 436.152344 C 335.867188 435.980469 335.496094 435.730469 335.175781 435.410156 C 334.851562 435.089844 334.601562 434.722656 334.429688 434.300781 C 334.253906 433.882812 334.167969 433.445312 334.167969 432.992188 Z M 334.167969 432.992188 " fill-opacity="1" fill-rule="nonzero"/><path fill="#746aea" d="M 326.105469 435.410156 C 325.78125 435.089844 325.53125 434.722656 325.359375 434.300781 C 325.183594 433.882812 325.097656 433.445312 325.097656 432.992188 C 325.097656 432.539062 325.183594 432.101562 325.359375 431.683594 C 325.53125 431.265625 325.78125 430.894531 326.105469 430.574219 C 326.425781 430.253906 326.796875 430.007812 327.21875 429.832031 C 327.640625 429.660156 328.082031 429.574219 328.535156 429.574219 C 328.992188 429.574219 329.433594 429.660156 329.851562 429.832031 C 330.273438 430.007812 330.648438 430.253906 330.96875 430.574219 C 331.292969 430.894531 331.539062 431.265625 331.714844 431.683594 C 331.890625 432.101562 331.976562 432.539062 331.976562 432.992188 C 331.976562 433.445312 331.890625 433.882812 331.714844 434.300781 C 331.539062 434.722656 331.292969 435.089844 330.96875 435.410156 C 330.648438 435.730469 330.273438 435.980469 329.851562 436.152344 C 329.433594 436.328125 328.992188 436.414062 328.535156 436.414062 C 328.082031 436.414062 327.640625 436.328125 327.21875 436.152344 C 326.796875 435.980469 326.425781 435.730469 326.105469 435.410156 Z M 326.105469 435.410156 " fill-opacity="1" fill-rule="nonzero"/><path fill="#746aea" d="M 316.117188 433.78125 C 316.011719 433.339844 315.996094 432.894531 316.070312 432.445312 C 316.144531 432 316.300781 431.582031 316.539062 431.195312 C 316.78125 430.808594 317.085938 430.484375 317.453125 430.21875 C 317.824219 429.953125 318.230469 429.769531 318.675781 429.664062 C 319.121094 429.5625 319.566406 429.546875 320.019531 429.617188 C 320.46875 429.691406 320.886719 429.847656 321.277344 430.085938 C 321.664062 430.324219 321.992188 430.625 322.257812 430.996094 C 322.523438 431.363281 322.710938 431.765625 322.816406 432.207031 C 322.921875 432.648438 322.9375 433.09375 322.863281 433.542969 C 322.789062 433.988281 322.632812 434.40625 322.394531 434.792969 C 322.152344 435.179688 321.847656 435.503906 321.480469 435.769531 C 321.109375 436.035156 320.703125 436.21875 320.257812 436.324219 C 319.8125 436.425781 319.367188 436.441406 318.914062 436.371094 C 318.464844 436.296875 318.046875 436.140625 317.65625 435.902344 C 317.269531 435.664062 316.941406 435.363281 316.675781 434.992188 C 316.410156 434.625 316.222656 434.222656 316.117188 433.78125 Z M 316.117188 433.78125 " fill-opacity="1" fill-rule="nonzero"/><path fill="#746aea" d="M 307.964844 435.410156 C 307.640625 435.089844 307.394531 434.71875 307.21875 434.300781 C 307.042969 433.882812 306.957031 433.445312 306.957031 432.992188 C 306.957031 432.539062 307.042969 432.101562 307.21875 431.683594 C 307.394531 431.265625 307.640625 430.894531 307.964844 430.574219 C 308.285156 430.253906 308.660156 430.007812 309.078125 429.832031 C 309.5 429.660156 309.941406 429.574219 310.398438 429.574219 C 310.851562 429.574219 311.292969 429.660156 311.714844 429.832031 C 312.136719 430.007812 312.507812 430.253906 312.828125 430.574219 C 313.152344 430.894531 313.402344 431.265625 313.574219 431.683594 C 313.75 432.101562 313.835938 432.539062 313.835938 432.992188 C 313.835938 433.445312 313.75 433.882812 313.574219 434.300781 C 313.402344 434.71875 313.152344 435.089844 312.828125 435.410156 C 312.507812 435.730469 312.136719 435.980469 311.714844 436.152344 C 311.292969 436.324219 310.851562 436.414062 310.398438 436.414062 C 309.941406 436.414062 309.5 436.324219 309.078125 436.152344 C 308.660156 435.980469 308.285156 435.730469 307.964844 435.410156 Z M 307.964844 435.410156 " fill-opacity="1" fill-rule="nonzero"/><path fill="#746aea" d="M 297.976562 433.78125 C 297.875 433.339844 297.855469 432.894531 297.929688 432.445312 C 298.003906 432 298.160156 431.582031 298.398438 431.195312 C 298.640625 430.808594 298.945312 430.484375 299.316406 430.21875 C 299.683594 429.953125 300.09375 429.769531 300.535156 429.664062 C 300.980469 429.5625 301.425781 429.546875 301.878906 429.617188 C 302.328125 429.691406 302.746094 429.847656 303.136719 430.085938 C 303.523438 430.324219 303.851562 430.625 304.117188 430.996094 C 304.382812 431.363281 304.570312 431.765625 304.675781 432.207031 C 304.78125 432.648438 304.796875 433.09375 304.722656 433.542969 C 304.648438 433.988281 304.492188 434.40625 304.253906 434.792969 C 304.011719 435.179688 303.707031 435.503906 303.339844 435.769531 C 302.96875 436.035156 302.5625 436.21875 302.117188 436.324219 C 301.671875 436.425781 301.226562 436.441406 300.777344 436.371094 C 300.324219 436.296875 299.90625 436.140625 299.519531 435.902344 C 299.128906 435.664062 298.800781 435.363281 298.535156 434.992188 C 298.269531 434.625 298.082031 434.222656 297.976562 433.78125 Z M 297.976562 433.78125 " fill-opacity="1" fill-rule="nonzero"/><path fill="#746aea" d="M 289.824219 435.410156 C 289.5 435.089844 289.253906 434.722656 289.078125 434.300781 C 288.902344 433.882812 288.816406 433.445312 288.816406 432.992188 C 288.816406 432.539062 288.902344 432.101562 289.078125 431.683594 C 289.253906 431.265625 289.5 430.894531 289.824219 430.574219 C 290.144531 430.253906 290.519531 430.007812 290.941406 429.832031 C 291.359375 429.660156 291.800781 429.574219 292.257812 429.574219 C 292.710938 429.574219 293.152344 429.660156 293.574219 429.832031 C 293.996094 430.007812 294.367188 430.253906 294.6875 430.574219 C 295.011719 430.894531 295.261719 431.265625 295.433594 431.683594 C 295.609375 432.101562 295.695312 432.539062 295.695312 432.992188 C 295.695312 433.445312 295.609375 433.882812 295.433594 434.300781 C 295.261719 434.722656 295.011719 435.089844 294.6875 435.410156 C 294.367188 435.730469 293.996094 435.980469 293.574219 436.152344 C 293.152344 436.328125 292.710938 436.414062 292.257812 436.414062 C 291.800781 436.414062 291.359375 436.328125 290.941406 436.152344 C 290.519531 435.980469 290.144531 435.730469 289.824219 435.410156 Z M 289.824219 435.410156 " fill-opacity="1" fill-rule="nonzero"/><path fill="#746aea" d="M 279.835938 433.78125 C 279.734375 433.339844 279.71875 432.894531 279.789062 432.445312 C 279.863281 432 280.019531 431.582031 280.257812 431.195312 C 280.5 430.8125 280.804688 430.484375 281.175781 430.21875 C 281.542969 429.953125 281.953125 429.769531 282.394531 429.664062 C 282.839844 429.5625 283.285156 429.546875 283.738281 429.617188 C 284.1875 429.691406 284.605469 429.847656 284.996094 430.085938 C 285.382812 430.324219 285.710938 430.625 285.976562 430.996094 C 286.242188 431.363281 286.429688 431.765625 286.535156 432.207031 C 286.640625 432.648438 286.65625 433.09375 286.582031 433.542969 C 286.507812 433.988281 286.351562 434.40625 286.113281 434.792969 C 285.875 435.179688 285.566406 435.503906 285.199219 435.769531 C 284.828125 436.035156 284.421875 436.21875 283.976562 436.324219 C 283.53125 436.425781 283.085938 436.441406 282.636719 436.371094 C 282.183594 436.296875 281.765625 436.140625 281.378906 435.902344 C 280.988281 435.664062 280.660156 435.363281 280.394531 434.996094 C 280.128906 434.625 279.941406 434.222656 279.835938 433.78125 Z M 279.835938 433.78125 " fill-opacity="1" fill-rule="nonzero"/><path fill="#746aea" d="M 271.683594 435.410156 C 271.359375 435.089844 271.113281 434.722656 270.9375 434.300781 C 270.761719 433.882812 270.675781 433.445312 270.675781 432.992188 C 270.675781 432.539062 270.761719 432.101562 270.9375 431.683594 C 271.113281 431.265625 271.359375 430.894531 271.683594 430.574219 C 272.007812 430.253906 272.378906 430.007812 272.800781 429.832031 C 273.222656 429.660156 273.660156 429.574219 274.117188 429.574219 C 274.574219 429.574219 275.011719 429.660156 275.433594 429.832031 C 275.855469 430.007812 276.226562 430.253906 276.550781 430.574219 C 276.871094 430.894531 277.121094 431.265625 277.292969 431.683594 C 277.46875 432.101562 277.558594 432.539062 277.554688 432.992188 C 277.554688 433.445312 277.46875 433.882812 277.292969 434.300781 C 277.121094 434.722656 276.871094 435.089844 276.550781 435.410156 C 276.226562 435.730469 275.855469 435.980469 275.433594 436.152344 C 275.011719 436.328125 274.574219 436.414062 274.117188 436.414062 C 273.660156 436.414062 273.222656 436.328125 272.800781 436.152344 C 272.378906 435.980469 272.007812 435.730469 271.683594 435.410156 Z M 271.683594 435.410156 " fill-opacity="1" fill-rule="nonzero"/><path fill="#746aea" d="M 261.695312 433.78125 C 261.59375 433.339844 261.578125 432.894531 261.648438 432.445312 C 261.722656 432 261.878906 431.582031 262.117188 431.195312 C 262.359375 430.808594 262.664062 430.484375 263.035156 430.21875 C 263.402344 429.953125 263.8125 429.769531 264.253906 429.664062 C 264.699219 429.5625 265.144531 429.546875 265.597656 429.617188 C 266.046875 429.691406 266.464844 429.847656 266.855469 430.085938 C 267.242188 430.324219 267.570312 430.625 267.835938 430.996094 C 268.101562 431.363281 268.289062 431.765625 268.394531 432.207031 C 268.5 432.648438 268.515625 433.09375 268.441406 433.542969 C 268.367188 433.988281 268.210938 434.40625 267.972656 434.792969 C 267.730469 435.179688 267.425781 435.503906 267.058594 435.769531 C 266.6875 436.035156 266.28125 436.21875 265.835938 436.324219 C 265.390625 436.425781 264.945312 436.441406 264.496094 436.371094 C 264.042969 436.296875 263.625 436.140625 263.238281 435.902344 C 262.847656 435.664062 262.519531 435.363281 262.253906 434.992188 C 261.988281 434.625 261.800781 434.222656 261.695312 433.78125 Z M 261.695312 433.78125 " fill-opacity="1" fill-rule="nonzero"/><path fill="#746aea" d="M 252.535156 432.992188 C 252.535156 432.539062 252.621094 432.101562 252.796875 431.683594 C 252.972656 431.265625 253.21875 430.894531 253.542969 430.574219 C 253.863281 430.253906 254.238281 430.007812 254.660156 429.832031 C 255.078125 429.660156 255.519531 429.574219 255.976562 429.574219 C 256.429688 429.574219 256.871094 429.660156 257.292969 429.832031 C 257.714844 430.007812 258.085938 430.253906 258.40625 430.574219 C 258.730469 430.894531 258.980469 431.265625 259.152344 431.683594 C 259.328125 432.101562 259.414062 432.539062 259.414062 432.992188 C 259.414062 433.445312 259.328125 433.882812 259.152344 434.300781 C 258.980469 434.722656 258.730469 435.089844 258.40625 435.410156 C 258.085938 435.730469 257.714844 435.980469 257.292969 436.152344 C 256.871094 436.328125 256.429688 436.414062 255.976562 436.414062 C 255.519531 436.414062 255.078125 436.328125 254.660156 436.152344 C 254.238281 435.980469 253.863281 435.730469 253.542969 435.410156 C 253.21875 435.089844 252.972656 434.722656 252.796875 434.300781 C 252.621094 433.882812 252.535156 433.445312 252.535156 432.992188 Z M 252.535156 432.992188 " fill-opacity="1" fill-rule="nonzero"/><path fill="#746aea" d="M 244.472656 435.410156 C 244.148438 435.089844 243.902344 434.722656 243.726562 434.300781 C 243.550781 433.882812 243.464844 433.445312 243.464844 432.992188 C 243.464844 432.539062 243.550781 432.105469 243.726562 431.683594 C 243.902344 431.265625 244.148438 430.894531 244.472656 430.574219 C 244.796875 430.253906 245.167969 430.007812 245.589844 429.832031 C 246.011719 429.660156 246.449219 429.574219 246.90625 429.574219 C 247.363281 429.574219 247.800781 429.660156 248.222656 429.832031 C 248.644531 430.007812 249.015625 430.253906 249.339844 430.574219 C 249.660156 430.894531 249.910156 431.265625 250.085938 431.683594 C 250.257812 432.105469 250.347656 432.539062 250.347656 432.992188 C 250.347656 433.445312 250.257812 433.882812 250.085938 434.300781 C 249.910156 434.722656 249.660156 435.089844 249.339844 435.410156 C 249.015625 435.734375 248.644531 435.980469 248.222656 436.152344 C 247.800781 436.328125 247.363281 436.414062 246.90625 436.414062 C 246.449219 436.414062 246.011719 436.328125 245.589844 436.152344 C 245.167969 435.980469 244.796875 435.734375 244.472656 435.410156 Z M 244.472656 435.410156 " fill-opacity="1" fill-rule="nonzero"/><path fill="#746aea" d="M 234.484375 433.78125 C 234.382812 433.339844 234.367188 432.894531 234.4375 432.445312 C 234.511719 432 234.667969 431.582031 234.90625 431.195312 C 235.148438 430.8125 235.453125 430.484375 235.824219 430.21875 C 236.191406 429.953125 236.601562 429.769531 237.042969 429.664062 C 237.488281 429.5625 237.933594 429.546875 238.386719 429.617188 C 238.835938 429.691406 239.253906 429.847656 239.644531 430.085938 C 240.03125 430.324219 240.359375 430.625 240.625 430.996094 C 240.890625 431.363281 241.078125 431.765625 241.183594 432.207031 C 241.289062 432.648438 241.304688 433.09375 241.230469 433.542969 C 241.15625 433.988281 241 434.40625 240.761719 434.792969 C 240.523438 435.179688 240.214844 435.503906 239.847656 435.769531 C 239.476562 436.035156 239.070312 436.21875 238.625 436.324219 C 238.179688 436.425781 237.734375 436.441406 237.285156 436.371094 C 236.832031 436.296875 236.414062 436.140625 236.027344 435.902344 C 235.636719 435.664062 235.308594 435.363281 235.042969 434.996094 C 234.777344 434.625 234.589844 434.222656 234.484375 433.78125 Z M 234.484375 433.78125 " fill-opacity="1" fill-rule="nonzero"/><path fill="#746aea" d="M 226.332031 435.410156 C 226.011719 435.089844 225.761719 434.722656 225.585938 434.300781 C 225.410156 433.882812 225.324219 433.445312 225.324219 432.992188 C 225.324219 432.539062 225.410156 432.101562 225.585938 431.683594 C 225.761719 431.265625 226.011719 430.894531 226.332031 430.574219 C 226.65625 430.253906 227.027344 430.007812 227.449219 429.832031 C 227.871094 429.660156 228.308594 429.574219 228.765625 429.574219 C 229.222656 429.574219 229.660156 429.660156 230.082031 429.832031 C 230.503906 430.007812 230.875 430.253906 231.199219 430.574219 C 231.519531 430.894531 231.769531 431.265625 231.945312 431.683594 C 232.117188 432.101562 232.207031 432.539062 232.207031 432.992188 C 232.207031 433.445312 232.117188 433.882812 231.945312 434.300781 C 231.769531 434.722656 231.519531 435.089844 231.199219 435.410156 C 230.875 435.730469 230.503906 435.980469 230.082031 436.152344 C 229.660156 436.328125 229.222656 436.414062 228.765625 436.414062 C 228.308594 436.414062 227.871094 436.328125 227.449219 436.152344 C 227.027344 435.980469 226.65625 435.730469 226.332031 435.410156 Z M 226.332031 435.410156 " fill-opacity="1" fill-rule="nonzero"/><path fill="#746aea" d="M 216.347656 433.78125 C 216.242188 433.339844 216.226562 432.894531 216.296875 432.445312 C 216.371094 432 216.527344 431.582031 216.769531 431.195312 C 217.007812 430.8125 217.3125 430.484375 217.683594 430.21875 C 218.054688 429.957031 218.460938 429.769531 218.902344 429.667969 C 219.347656 429.5625 219.796875 429.546875 220.246094 429.617188 C 220.695312 429.691406 221.117188 429.847656 221.503906 430.085938 C 221.890625 430.324219 222.21875 430.628906 222.484375 430.996094 C 222.753906 431.363281 222.9375 431.769531 223.042969 432.210938 C 223.148438 432.652344 223.164062 433.09375 223.089844 433.542969 C 223.019531 433.992188 222.859375 434.40625 222.621094 434.792969 C 222.382812 435.179688 222.078125 435.503906 221.707031 435.769531 C 221.335938 436.035156 220.929688 436.21875 220.484375 436.324219 C 220.042969 436.425781 219.59375 436.445312 219.144531 436.371094 C 218.691406 436.296875 218.273438 436.140625 217.886719 435.902344 C 217.496094 435.664062 217.171875 435.363281 216.902344 434.996094 C 216.636719 434.625 216.449219 434.222656 216.347656 433.78125 Z M 216.347656 433.78125 " fill-opacity="1" fill-rule="nonzero"/><path fill="#746aea" d="M 208.191406 435.410156 C 207.867188 435.089844 207.621094 434.71875 207.445312 434.300781 C 207.269531 433.882812 207.183594 433.445312 207.183594 432.992188 C 207.183594 432.539062 207.269531 432.101562 207.445312 431.683594 C 207.621094 431.265625 207.867188 430.894531 208.191406 430.574219 C 208.515625 430.253906 208.886719 430.007812 209.308594 429.832031 C 209.730469 429.660156 210.167969 429.574219 210.625 429.574219 C 211.082031 429.574219 211.519531 429.660156 211.941406 429.832031 C 212.363281 430.007812 212.734375 430.253906 213.058594 430.574219 C 213.378906 430.894531 213.628906 431.265625 213.800781 431.683594 C 213.976562 432.101562 214.066406 432.539062 214.066406 432.992188 C 214.066406 433.445312 213.976562 433.882812 213.800781 434.300781 C 213.628906 434.71875 213.378906 435.089844 213.058594 435.410156 C 212.734375 435.730469 212.363281 435.980469 211.941406 436.152344 C 211.519531 436.324219 211.082031 436.414062 210.625 436.414062 C 210.167969 436.414062 209.730469 436.324219 209.308594 436.152344 C 208.886719 435.980469 208.515625 435.730469 208.191406 435.410156 Z M 208.191406 435.410156 " fill-opacity="1" fill-rule="nonzero"/><path fill="#746aea" d="M 198.207031 433.78125 C 198.101562 433.339844 198.085938 432.894531 198.160156 432.445312 C 198.230469 432 198.386719 431.582031 198.628906 431.195312 C 198.867188 430.8125 199.171875 430.484375 199.542969 430.21875 C 199.914062 429.953125 200.320312 429.769531 200.765625 429.667969 C 201.207031 429.5625 201.65625 429.546875 202.105469 429.617188 C 202.554688 429.691406 202.976562 429.847656 203.363281 430.085938 C 203.75 430.324219 204.078125 430.628906 204.34375 430.996094 C 204.613281 431.363281 204.796875 431.765625 204.902344 432.207031 C 205.007812 432.648438 205.023438 433.09375 204.949219 433.542969 C 204.878906 433.988281 204.722656 434.40625 204.480469 434.792969 C 204.242188 435.179688 203.9375 435.503906 203.566406 435.769531 C 203.195312 436.035156 202.789062 436.21875 202.34375 436.324219 C 201.902344 436.425781 201.453125 436.441406 201.003906 436.371094 C 200.554688 436.296875 200.132812 436.140625 199.746094 435.902344 C 199.359375 435.664062 199.03125 435.363281 198.761719 434.996094 C 198.496094 434.625 198.3125 434.222656 198.207031 433.78125 Z M 198.207031 433.78125 " fill-opacity="1" fill-rule="nonzero"/><path fill="#746aea" d="M 190.050781 435.410156 C 189.726562 435.089844 189.480469 434.722656 189.304688 434.300781 C 189.128906 433.882812 189.042969 433.445312 189.042969 432.992188 C 189.042969 432.539062 189.128906 432.105469 189.304688 431.683594 C 189.480469 431.265625 189.726562 430.894531 190.050781 430.574219 C 190.371094 430.253906 190.746094 430.007812 191.167969 429.832031 C 191.585938 429.660156 192.027344 429.574219 192.484375 429.574219 C 192.9375 429.574219 193.378906 429.660156 193.800781 429.832031 C 194.222656 430.007812 194.59375 430.253906 194.914062 430.574219 C 195.238281 430.894531 195.488281 431.265625 195.660156 431.683594 C 195.835938 432.105469 195.921875 432.539062 195.921875 432.992188 C 195.921875 433.445312 195.835938 433.882812 195.660156 434.300781 C 195.488281 434.722656 195.238281 435.089844 194.914062 435.410156 C 194.59375 435.734375 194.222656 435.980469 193.800781 436.152344 C 193.378906 436.328125 192.9375 436.414062 192.484375 436.414062 C 192.027344 436.414062 191.585938 436.328125 191.167969 436.152344 C 190.746094 435.980469 190.371094 435.734375 190.050781 435.410156 Z M 190.050781 435.410156 " fill-opacity="1" fill-rule="nonzero"/><g clip-path="url(#941242b756)"><path fill="#746aea" d="M 394.085938 445.671875 C 393.25 445.671875 392.425781 445.589844 391.605469 445.429688 C 390.785156 445.265625 389.988281 445.023438 389.214844 444.703125 C 388.445312 444.382812 387.710938 443.992188 387.015625 443.527344 C 386.320312 443.0625 385.679688 442.535156 385.085938 441.945312 C 384.496094 441.355469 383.96875 440.710938 383.503906 440.015625 C 383.039062 439.320312 382.648438 438.589844 382.328125 437.816406 C 382.007812 437.042969 381.765625 436.246094 381.605469 435.429688 C 381.441406 434.609375 381.359375 433.78125 381.359375 432.945312 C 381.359375 432.109375 381.441406 431.28125 381.605469 430.460938 C 381.765625 429.640625 382.007812 428.847656 382.328125 428.074219 C 382.648438 427.300781 383.039062 426.570312 383.503906 425.875 C 383.96875 425.179688 384.496094 424.535156 385.085938 423.945312 C 385.679688 423.355469 386.320312 422.828125 387.015625 422.363281 C 387.710938 421.898438 388.445312 421.503906 389.214844 421.1875 C 389.988281 420.867188 390.785156 420.625 391.605469 420.460938 C 392.425781 420.296875 393.25 420.21875 394.085938 420.21875 C 394.921875 420.21875 395.75 420.296875 396.570312 420.460938 C 397.390625 420.625 398.1875 420.867188 398.957031 421.1875 C 399.730469 421.503906 400.464844 421.898438 401.160156 422.363281 C 401.855469 422.828125 402.496094 423.355469 403.085938 423.945312 C 403.679688 424.535156 404.207031 425.179688 404.671875 425.875 C 405.136719 426.570312 405.527344 427.300781 405.847656 428.074219 C 406.167969 428.847656 406.40625 429.640625 406.570312 430.460938 C 406.734375 431.28125 406.816406 432.109375 406.816406 432.945312 C 406.816406 433.78125 406.734375 434.609375 406.570312 435.429688 C 406.40625 436.246094 406.167969 437.042969 405.847656 437.816406 C 405.527344 438.589844 405.136719 439.320312 404.671875 440.015625 C 404.207031 440.710938 403.679688 441.355469 403.085938 441.945312 C 402.496094 442.535156 401.855469 443.0625 401.160156 443.527344 C 400.464844 443.992188 399.730469 444.382812 398.957031 444.703125 C 398.1875 445.023438 397.390625 445.265625 396.570312 445.429688 C 395.75 445.589844 394.921875 445.671875 394.085938 445.671875 Z M 394.085938 445.671875 " fill-opacity="1" fill-rule="nonzero"/></g><g clip-path="url(#b94d569e69)"><path fill="#746aea" d="M 197.230469 441.78125 C 196.640625 441.78125 196.058594 441.726562 195.480469 441.609375 C 194.898438 441.496094 194.339844 441.324219 193.792969 441.097656 C 193.25 440.871094 192.730469 440.597656 192.238281 440.269531 C 191.75 439.941406 191.296875 439.566406 190.878906 439.152344 C 190.460938 438.734375 190.089844 438.28125 189.761719 437.789062 C 189.433594 437.300781 189.15625 436.78125 188.929688 436.238281 C 188.707031 435.691406 188.535156 435.128906 188.417969 434.550781 C 188.304688 433.972656 188.246094 433.386719 188.246094 432.796875 C 188.246094 432.207031 188.304688 431.625 188.417969 431.046875 C 188.535156 430.46875 188.707031 429.90625 188.929688 429.359375 C 189.15625 428.816406 189.433594 428.296875 189.761719 427.808594 C 190.089844 427.316406 190.460938 426.863281 190.878906 426.445312 C 191.296875 426.027344 191.75 425.65625 192.238281 425.328125 C 192.730469 425 193.25 424.722656 193.792969 424.496094 C 194.339844 424.273438 194.898438 424.101562 195.480469 423.988281 C 196.058594 423.871094 196.640625 423.8125 197.230469 423.8125 C 197.820312 423.8125 198.40625 423.871094 198.984375 423.988281 C 199.5625 424.101562 200.125 424.273438 200.667969 424.496094 C 201.214844 424.722656 201.734375 425 202.222656 425.328125 C 202.714844 425.65625 203.167969 426.027344 203.585938 426.445312 C 204 426.863281 204.375 427.316406 204.703125 427.808594 C 205.03125 428.296875 205.304688 428.816406 205.53125 429.359375 C 205.757812 429.90625 205.929688 430.46875 206.042969 431.046875 C 206.160156 431.625 206.214844 432.207031 206.214844 432.796875 C 206.214844 433.386719 206.160156 433.972656 206.042969 434.550781 C 205.929688 435.128906 205.757812 435.691406 205.53125 436.238281 C 205.304688 436.78125 205.03125 437.300781 204.703125 437.789062 C 204.375 438.28125 204 438.734375 203.585938 439.152344 C 203.167969 439.566406 202.714844 439.941406 202.222656 440.269531 C 201.734375 440.597656 201.214844 440.871094 200.667969 441.097656 C 200.125 441.324219 199.5625 441.496094 198.984375 441.609375 C 198.40625 441.726562 197.820312 441.78125 197.230469 441.78125 Z M 197.230469 441.78125 " fill-opacity="1" fill-rule="nonzero"/></g></svg>